<svg width="717" height="100" viewBox="0 0 717 100" fill="none" xmlns="http://www.w3.org/2000/svg">
<mask id="mask0_4_62" style="mask-type:alpha" maskUnits="userSpaceOnUse" x="0" y="0" width="717" height="100">
<path fill-rule="evenodd" clip-rule="evenodd" d="M254.528 49.9738C254.528 22.5157 268.124 0 292.154 0C316.184 0 329.78 22.5157 329.78 49.9738C329.78 77.4318 316.184 99.9474 292.154 99.9474C268.124 99.9474 254.528 77.4318 254.528 49.9738ZM292.154 84.5709C299.027 84.5709 304.103 71.5242 304.103 49.9738C304.103 28.4233 299.027 15.3766 292.154 15.3766C285.281 15.3766 280.206 28.4233 280.206 49.9738C280.206 71.5242 285.281 84.5709 292.154 84.5709ZM0 1.91406H19.9029V28.4069L38.9905 1.91406H62.8873L31.1691 34.3146L90.6117 1.91406V24.4297L38.4413 43.6503L90.6117 39.257V60.6743L38.4413 56.281L90.6117 75.5017V98.0173L31.1691 65.6168L62.8873 98.0173H38.9905L19.9029 71.5244V98.0173H0V1.91406ZM102.693 1.91406H126.856L123.012 62.0555L148.823 1.91406H168.875V98.0173H144.712L148.556 37.8758L122.746 98.0173H102.693V1.91406ZM204.837 1.91406H180.94V98.0173H204.837V54.6336H221.595V98.0173H245.492V1.91406H221.595V38.4416H204.837V1.91406ZM403.367 1.91406H338.833H338.816V98.0339H362.713V18.1226H379.471V98.0173H403.367V1.91406ZM412.42 49.9738C412.42 22.5157 426.016 0 450.046 0C474.076 0 487.672 22.5157 487.672 49.9738C487.672 77.4318 474.076 99.9474 450.046 99.9474C426.016 99.9474 412.42 77.4318 412.42 49.9738ZM450.029 84.5709C456.902 84.5709 461.978 71.5242 461.978 49.9738C461.978 28.4233 456.902 15.3766 450.029 15.3766C443.157 15.3766 438.081 28.4233 438.081 49.9738C438.081 71.5242 443.173 84.5709 450.029 84.5709ZM520.871 1.91406H496.708V98.0173H516.761L542.571 37.8758L538.727 98.0173H562.89V1.91406H542.837L517.027 62.0555L520.871 1.91406ZM619.455 64.1188L642.253 67.4138L641.571 70.7087C637.86 88.5648 627.293 99.9474 608.754 99.9474C584.724 99.9474 571.961 77.4318 571.961 49.9738C571.961 22.5157 584.724 0 608.754 0C626.61 0 637.311 11.3993 641.288 28.1404L641.97 31.0193L618.623 35.9618C616.975 22.6488 613.264 15.3599 608.738 15.3599C601.465 15.3599 597.621 30.0541 597.621 49.9571C597.621 69.86 601.465 84.5543 608.738 84.5543C613.813 84.5709 617.807 76.7495 619.455 64.1188ZM674.088 1.91406H649.925V98.0173H674.088V58.0616L689.598 98.0173H716.373L689.465 48.4597L715.691 1.91406H690.979L674.088 41.8697V1.91406Z" fill="black"/>
</mask>
<g mask="url(#mask0_4_62)">
<rect x="-61.5624" y="-56.5709" width="891.823" height="239.594" fill="url(#paint0_radial_4_62)"/>
</g>
<defs>
<radialGradient id="paint0_radial_4_62" cx="0" cy="0" r="1" gradientUnits="userSpaceOnUse" gradientTransform="translate(-4.25003e-05 1.66382) rotate(2.78103) scale(994.49 146.552)">
<stop offset="0.48902" stopColor="#FF5300"/>
<stop offset="1" stopColor="#BBFF00"/>
</radialGradient>
</defs>
</svg>
