<svg width="300" height="300" viewBox="0 0 300 300" fill="none" xmlns="http://www.w3.org/2000/svg">
<path d="M300 169.416L161.446 160.146L288.344 210.844C294.12 197.897 298.109 183.984 300 169.416Z" fill="white"/>
<path d="M271.546 239.454C244.092 276.198 200.15 300 150.625 300C67.4372 300 0 232.843 0 150C0 67.1573 67.4372 0 150.625 0C200.242 0 244.256 23.8911 271.7 60.7518L145.865 127.827L226.841 45H181.955L126.826 121.203V45H90.3751V255H126.826V178.92L181.955 255H226.841L147.968 174.777L271.546 239.454Z" fill="white"/>
<path d="M288.344 89.1559L162.332 139.494L300 130.581C298.109 116.014 294.12 102.102 288.344 89.1559Z" fill="white"/>
</svg>
