<svg width="731" height="100" viewBox="0 0 731 100" fill="none" xmlns="http://www.w3.org/2000/svg">
<path d="M0.0166663 1.93176H19.2474V31.4689L39.3107 1.93176H62.6706L28.7379 36.5472L90.6926 1.93176V23.9098L35.0649 44.7889L90.6926 39.5774V60.4566L35.0649 55.2451L90.6926 76.1242V98.1022L28.7379 63.4869L62.6706 98.1022H39.294L19.2308 68.5651V98.1022H0V1.93176H0.0166663Z" fill="white"/>
<path d="M104.412 1.93176H127.073L123.643 64.1529L151.798 1.93176H170.346V98.0856H147.686L151.116 35.8645L122.96 98.0856H104.412V1.93176V1.93176Z" fill="white"/>
<path d="M184.083 1.93176H206.743V39.028H225.974V1.93176H248.635V98.0856H225.974V54.1296H206.743V98.0856H184.083V1.93176Z" fill="white"/>
<path d="M259.074 50C259.074 22.5275 271.712 6.10352e-05 297.12 6.10352e-05C322.528 6.10352e-05 335.165 22.5275 335.165 50C335.165 77.4726 322.528 100 297.12 100C271.712 100.017 259.074 77.4892 259.074 50ZM297.12 85.731C306.044 85.731 311.272 69.9301 311.272 50.0167C311.272 30.1033 306.044 14.3024 297.12 14.3024C288.195 14.3024 282.967 30.1033 282.967 50.0167C282.984 69.9301 288.195 85.731 297.12 85.731Z" fill="white"/>
<path d="M345.604 1.93176H410.856V98.0856H388.195V17.0333H368.281V98.0856H345.621V1.93176H345.604Z" fill="white"/>
<path d="M421.295 50C421.295 22.5275 433.932 6.10352e-05 459.34 6.10352e-05C484.748 6.10352e-05 497.386 22.5275 497.386 50C497.386 77.4726 484.748 100 459.34 100C433.932 100 421.295 77.4892 421.295 50ZM459.357 85.731C468.281 85.731 473.509 69.9301 473.509 50.0167C473.509 30.1033 468.281 14.3024 459.357 14.3024C450.433 14.3024 445.204 30.1033 445.204 50.0167C445.204 69.9301 450.416 85.731 459.357 85.731Z" fill="white"/>
<path d="M507.842 1.93176H530.502L527.072 64.1529L555.228 1.93176H573.776V98.0856H551.115L554.545 35.8645L526.39 98.0856H507.842V1.93176Z" fill="white"/>
<path d="M634.066 64.1526L655.628 67.4493L654.945 70.746C651.232 88.6114 639.977 100 621.429 100C596.021 100 584.199 77.4726 584.199 50C584.199 22.5275 596.021 6.10352e-05 621.429 6.10352e-05C639.294 6.10352e-05 650.683 11.4053 654.679 28.1552L655.361 31.0357L633.25 35.9807C631.602 22.6607 627.623 14.2691 621.429 14.2691C612.504 14.2691 608.109 30.07 608.109 49.9834C608.109 69.8968 612.504 85.6977 621.429 85.6977C628.172 85.731 632.418 76.7899 634.066 64.1526Z" fill="white"/>
<path d="M664.968 1.93176H687.629V45.2052L706.177 1.93176H729.537L702.747 48.5019L730.219 98.0856H704.811L687.645 54.8122V98.0856H664.985V1.93176H664.968Z" fill="white"/>
</svg>
